<?xml version="1.0" encoding="UTF-8"?>
<svg width="343" height="344" xmlns="http://www.w3.org/2000/svg" xmlns:svg="http://www.w3.org/2000/svg">
 <title>chef hat 2</title>

 <g>
  <title>Layer 1</title>
  <path stroke-width="5" stroke="#191919" id="path3" fill="#ffffff" d="m236.75138,63.1989c-6.715,-19.69651 -31.984,-11.6021 -47,-14.26311c-12.424,-2.20169 -23.603,-11.37579 -36,-14.5818c-23.434,-6.06049 -57.2233,5.4183 -70.4522,25.84491c-13.4781,20.8116 -14.8435,50.507 -9.3117,74c2.0342,8.639 6.7552,16.355 8.8658,25c3.9019,15.982 5.472,36.559 4.6242,53c-0.7865,15.251 -19.2795,39.659 -10.2423,53.999c5.3037,8.416 16.9029,12.754 25.5162,16.781c23.362,10.924 48.41006,14.54507 73.83306,14.53507c9.455,-0.004 27.25094,-3.01507 34.84994,-9.30907c3.965,-3.283 3.032,-10.417 3.603,-15.006c1.511,-12.143 1.58,-27.242 7.804,-38c15.505,-26.801 35.129,-51.284 52.371,-77c7.84,-11.693 18.696,-25.011 22.007,-39c3.447,-14.569 2.102,-37.56421 -8.847,-48.66051c-12.873,-13.04619 -33.15442,-12.56438 -49.29742,-7.78208m-59.32358,-11.55741c-19.493,6.06329 -32.968,35.75359 -33,55c-0.23229,6.18071 -2.402,17.47 4,21c-2.798,-22.141 1.582,-55.26351 22.171,-68.8542c14.187,-9.3652 46.429,-10.9144 58.439,2.95839c7.452,8.60851 7.508,22.15821 6.206,32.8958c-2.125,17.51201 -16.956,29.02301 -23.816,44.00001c12.513,-3.522 26.872,-31.41 27.529,-44.00001c0.661,-12.6565 -5.363,-25.80869 10.471,-30.07249c31.66,-8.5257 42.86324,20.54657 41.63224,45.63827c-1.36417,9.32341 -6.57724,23.32523 -11.68624,31.43423c-11.444,18.162 -22.682,37.871 -36.897,54c-4.534,5.145 -18.036,27.507 -26.43,17.386c-2.872,-3.463 0.852,-8.318 2.69,-11.386c6.342,-10.582 13.546,-20.242 19.691,-31c-12.286,6.043 -15.006,26.283 -28,33.991c-6.808,4.038 -20.338,-1.952 -21.682,-10.006c-1.374,-8.234 3.678,-19.123 7.682,-25.985c-8.977,6.627 -6.709,19.236 -14.39,25.257c-4.025,3.155 -11.36547,0.79459 -15.71647,-0.28841c-4.678,-1.163 -11.90153,-1.69959 -15.29053,-5.48159c-2.518,-2.811 -1.597,-8.019 -1.603,-11.487c-0.013,-7.793 -1.014,-15.493 -3,-23c0,0 2.242,25.247 -2.858,31.682c-4.833,6.098 -24.59864,4.19421 -26.114,-2.701l-2.028,-22.981c-2.631,7.219 -0.346,14.994 -2.97,21.981c-1.583,4.217 -10.603,10.135 -13.4266,3.856c-2.552,-5.675 -1.1143,-15.59 -1.7076,-21.837c-0.8278,-8.716 -3.6894,-18.472 -5.8958,-27c0,0 2.8469,26.454 2.9961,39c0.0649,5.456 -1.57563,17.63139 -5.32789,12.00924c-4.157,-10.795 -2.85971,-17.26772 -5.56631,-28.35372c-2.0308,-8.318 -6.5003,-18.39852 -8.6235,-26.65552c-5.566,-21.646 -3.3292,-47.3759 7.8596,-67.00001c14.4128,-25.27889 53.263,-35.2404 78.662,-23.2546c5.282,2.4926 12.692,4.20391 16,9.25461m-63,39.99999l0.77871,1.32777c1.181,-14.8371 10.62229,-34.57776 26.22129,-38.32776c-15.386,-6.3959 -32.121,24.62159 -27,36.99999m146,-11c3.312,8.07481 6.5485,15.49672 4.8605,24.49273c-0.63632,7.172 -5.2565,15.43028 -6.8605,22.50728c10.49272,-8.72566 15.42834,-38.02678 2,-47.00001m-51,198.00001c-37.376,-19.666 -91.37,-30.014 -133,-19c0.713,-15.602 10.6743,-29.368 11.9066,-45c0.4172,-5.292 -1.34394,-15.041 2.68756,-19.298c6.1785,-6.524 21.25984,-4.795 29.40584,-4.698c26.831,0.319 56.364,5.324 80,18.572c6.013,3.371 15.539,6.433 19.381,12.467c3.42,5.371 -3.282,11.917 -5.022,16.957c-4.008,11.609 -5.351,27.705 -5.359,40m-8.63462,1.23383c4.84391,3.06849 7.89608,5.54074 3.67589,8.09737c-24.6923,11.71307 -53.90727,5.8148 -79.04127,-3.1512c-6.474,-2.31 -25.1223,-6.95 -24.4537,-16.137c0.7057,-9.696 16.772,-8.14947 22.913,-8.14947c26.73041,1.10647 52.52632,6.12994 76.90608,19.3403z"/>
 </g>
</svg>